<svg width="60" height="60" viewBox="0 0 60 60" fill="none" xmlns="http://www.w3.org/2000/svg">
<rect width="60" height="60" rx="10" fill="#0BB868"/>
<path d="M20.2337 45.6705C24.195 48.1513 28.9278 49.1521 33.5106 48.478C38.0935 47.8039 42.1982 45.5032 45.0258 42.0237C47.8533 38.5443 49.2012 34.1353 48.807 29.655C48.4129 25.1748 46.3048 20.9441 42.8933 17.7867C39.4818 14.6293 35.0111 12.7711 30.3517 12.5741C25.6922 12.377 21.1775 13.8551 17.6866 16.7205C14.1957 19.586 11.9785 23.6338 11.4666 28.0757C10.9548 32.5176 12.1849 37.0357 14.9176 40.7503" stroke="white" stroke-width="3"/>
<path d="M14.4763 39.0698L11.4287 48.8373L22.143 46.0466" stroke="white" stroke-width="3"/>
<path d="M25 20.9302H24.2857H22.1429C21.4286 21.3953 20 22.6046 20 23.7209C20 25.1162 20.7143 27.2092 21.4286 29.3023C22 30.9767 24.0476 34.186 25.7143 35.5813C29.0476 38.372 32.8571 39.0697 35 39.0697C37.1429 39.0697 39.0476 37.9069 40 36.9767L40.7143 34.8837C40.7143 34.8837 36.6667 33.2558 35 32.7906L32.8571 35.5813C30 36.9767 25.7143 32.093 25 28.6046L27.1429 25.8139L25 20.9302Z" fill="white" stroke="white"/>
</svg>
