<svg width="67" height="64" viewBox="0 0 67 64" fill="none" xmlns="http://www.w3.org/2000/svg">
<rect y="10.0005" width="54" height="54" fill="#CA9A3A"/>
<path d="M65.7699 15.9308C66.7733 20.065 66.3234 24.4086 64.4922 28.2667C62.661 32.1248 59.5544 35.2744 55.6692 37.2117C51.7841 39.149 47.345 39.762 43.0622 38.9526C38.7793 38.1432 34.9002 35.9582 32.0453 32.7472C29.1905 29.5362 27.525 25.4847 27.3153 21.2409C27.1055 16.9971 28.3636 12.8062 30.8883 9.33879C33.4131 5.87134 37.0585 3.32768 41.2414 2.11474C45.4243 0.90181 52.5843 0.800882 56.2803 3.3332" stroke="black"/>
<path d="M38.8973 15.367L34.292 20.4336L42.8446 29.3003L59.292 15.367L52.0551 10.3003L42.8446 20.4336L38.8973 15.367Z" stroke="black"/>
</svg>
