<svg width="73" height="64" viewBox="0 0 73 64" fill="none" xmlns="http://www.w3.org/2000/svg">
<rect y="10.8438" width="57.6" height="53.1562" fill="#CA9A3A"/>
<path d="M65.3286 19.7031C65.3286 28.091 57.9899 34.9531 48.8572 34.9531C39.7244 34.9531 32.3857 28.091 32.3857 19.7031C32.3857 11.3153 39.7244 4.45312 48.8572 4.45312C57.9899 4.45312 65.3286 11.3153 65.3286 19.7031Z" stroke="black"/>
<path d="M50.9285 20.1953C50.9285 20.7142 50.4825 21.1719 49.8856 21.1719C49.2888 21.1719 48.8428 20.7142 48.8428 20.1953C48.8428 19.6764 49.2888 19.2188 49.8856 19.2188C50.4825 19.2188 50.9285 19.6764 50.9285 20.1953Z" stroke="black"/>
<ellipse cx="51.429" cy="9.85938" rx="1.02857" ry="0.984375" fill="black"/>
<ellipse cx="61.7141" cy="19.7031" rx="1.02857" ry="0.984375" fill="black"/>
<ellipse cx="36.0003" cy="19.7031" rx="1.02857" ry="0.984375" fill="black"/>
<ellipse cx="50.4002" cy="32.5" rx="1.02857" ry="0.984375" fill="black"/>
<path d="M69.4605 15.6924C70.4513 19.7768 69.9056 24.0452 67.9109 27.8145C65.9162 31.5839 62.5877 34.6365 58.4579 36.484C54.3281 38.3314 49.6356 38.867 45.1312 38.0049C40.6268 37.1429 36.5708 34.933 33.6121 31.729C30.6533 28.5249 28.9628 24.5118 28.811 20.3316C28.6592 16.1514 30.0549 12.0457 32.7747 8.67143C35.4946 5.29713 39.3815 2.84918 43.8135 1.71922C48.2456 0.589261 55.7998 0.599265 59.6569 3.14816" stroke="black"/>
<path d="M66.8574 19.7031L68.786 14.7812L72.0003 19.1562" stroke="black"/>
<path d="M44.8159 13.2078L48.8416 18.4658" stroke="black"/>
<line y1="-0.5" x2="10.9877" y2="-0.5" transform="matrix(0.652956 -0.757396 0.803987 0.594646 51.5737 19.1655)" stroke="black"/>
</svg>
